<svg width="30" height="30" viewBox="0 0 30 30" fill="none" xmlns="http://www.w3.org/2000/svg">
<path d="M26.25 11.5625C26.0024 11.5657 25.7658 11.6655 25.5907 11.8407C25.4155 12.0158 25.3157 12.2524 25.3125 12.5V19.0625H21.25C20.6709 19.0658 20.1164 19.2973 19.7068 19.7068C19.2973 20.1164 19.0658 20.6709 19.0625 21.25V26.25C19.0625 26.4986 19.1613 26.7371 19.3371 26.9129C19.5129 27.0887 19.7514 27.1875 20 27.1875C20.2486 27.1875 20.4871 27.0887 20.6629 26.9129C20.8387 26.7371 20.9375 26.4986 20.9375 26.25V21.25C20.9375 21.1671 20.9704 21.0876 21.029 21.029C21.0876 20.9704 21.1671 20.9375 21.25 20.9375H25.3125V26.25C25.3125 26.4986 25.4113 26.7371 25.5871 26.9129C25.7629 27.0887 26.0014 27.1875 26.25 27.1875C26.4986 27.1875 26.7371 27.0887 26.9129 26.9129C27.0887 26.7371 27.1875 26.4986 27.1875 26.25V12.5C27.1843 12.2524 27.0845 12.0158 26.9093 11.8407C26.7342 11.6655 26.4976 11.5657 26.25 11.5625ZM8.75 19.0625H4.6875V12.5C4.6875 12.2514 4.58873 12.0129 4.41291 11.8371C4.2371 11.6613 3.99864 11.5625 3.75 11.5625C3.50136 11.5625 3.2629 11.6613 3.08709 11.8371C2.91127 12.0129 2.8125 12.2514 2.8125 12.5V26.25C2.8125 26.4986 2.91127 26.7371 3.08709 26.9129C3.2629 27.0887 3.50136 27.1875 3.75 27.1875C3.99864 27.1875 4.2371 27.0887 4.41291 26.9129C4.58873 26.7371 4.6875 26.4986 4.6875 26.25V20.9375H8.75C8.83288 20.9375 8.91237 20.9704 8.97097 21.029C9.02958 21.0876 9.0625 21.1671 9.0625 21.25V26.25C9.0625 26.4986 9.16127 26.7371 9.33709 26.9129C9.5129 27.0887 9.75136 27.1875 10 27.1875C10.2486 27.1875 10.4871 27.0887 10.6629 26.9129C10.8387 26.7371 10.9375 26.4986 10.9375 26.25V21.25C10.9342 20.6709 10.7027 20.1164 10.2932 19.7068C9.88364 19.2973 9.32915 19.0658 8.75 19.0625ZM20 17.1875C20.2486 17.1875 20.4871 17.0887 20.6629 16.9129C20.8387 16.7371 20.9375 16.4986 20.9375 16.25C20.9375 16.0014 20.8387 15.7629 20.6629 15.5871C20.4871 15.4113 20.2486 15.3125 20 15.3125H10C9.75136 15.3125 9.5129 15.4113 9.33709 15.5871C9.16127 15.7629 9.0625 16.0014 9.0625 16.25C9.0625 16.4986 9.16127 16.7371 9.33709 16.9129C9.5129 17.0887 9.75136 17.1875 10 17.1875H14.0625V26.25C14.0625 26.4986 14.1613 26.7371 14.3371 26.9129C14.5129 27.0887 14.7514 27.1875 15 27.1875C15.2486 27.1875 15.4871 27.0887 15.6629 26.9129C15.8387 26.7371 15.9375 26.4986 15.9375 26.25V17.1875H20Z" fill="white"/>
<path d="M20 12.1875H10C9.42085 12.1842 8.86636 11.9527 8.45683 11.5432C8.0473 11.1336 7.81578 10.5791 7.8125 10V5C7.81578 4.42085 8.0473 3.86636 8.45683 3.45683C8.86636 3.0473 9.42085 2.81578 10 2.8125H20C20.5792 2.81578 21.1336 3.0473 21.5432 3.45683C21.9527 3.86636 22.1842 4.42085 22.1875 5V10C22.1842 10.5791 21.9527 11.1336 21.5432 11.5432C21.1336 11.9527 20.5792 12.1842 20 12.1875ZM10 4.6875C9.91712 4.6875 9.83763 4.72042 9.77903 4.77903C9.72042 4.83763 9.6875 4.91712 9.6875 5V10C9.6875 10.0829 9.72042 10.1624 9.77903 10.221C9.83763 10.2796 9.91712 10.3125 10 10.3125H20C20.0829 10.3125 20.1624 10.2796 20.221 10.221C20.2796 10.1624 20.3125 10.0829 20.3125 10V5C20.3125 4.91712 20.2796 4.83763 20.221 4.77903C20.1624 4.72042 20.0829 4.6875 20 4.6875H10Z" fill="white"/>
</svg>
