<svg width="30" height="30" viewBox="0 0 30 30" fill="none" xmlns="http://www.w3.org/2000/svg">
<path d="M14.2812 13.5506H5.65625C4.46722 13.5506 3.5 14.5178 3.5 15.7069V24.3318C3.5 25.5209 4.46722 26.4881 5.65625 26.4881H14.2812C15.4703 26.4881 16.4375 25.5209 16.4375 24.3318V15.7069C16.4375 14.5178 15.4703 13.5506 14.2812 13.5506ZM15 24.3318C15 24.7281 14.6778 25.0506 14.2812 25.0506H5.65625C5.25967 25.0506 4.9375 24.7281 4.9375 24.3318V15.7069C4.9375 15.3106 5.25967 14.9881 5.65625 14.9881H14.2812C14.6778 14.9881 15 15.3106 15 15.7069V24.3318Z" fill="#F6F6F6"/>
<path d="M12.3356 16.6362C12.3341 16.6377 11.4062 17.5655 11.4062 17.5655L11.1957 17.3549C10.5387 16.6979 9.52598 17.7179 10.1793 18.3713C10.1806 18.3725 10.8981 19.09 10.8981 19.09C11.1658 19.3581 11.6413 19.3632 11.9144 19.09L13.3519 17.6525C14.0082 16.9963 12.9899 15.9818 12.3356 16.6362Z" fill="#F6F6F6"/>
<path d="M24.3438 4.9256H22.1875V4.20685C22.1875 3.27705 20.75 3.29117 20.75 4.20685C20.75 4.20917 20.75 4.51556 20.75 4.9256H15.7188C15.7188 4.51402 15.7188 4.20685 15.7188 4.20685C15.7188 3.27731 14.2812 3.2827 14.2812 4.20685C14.2812 4.20992 14.2812 4.51599 14.2812 4.9256H9.25V4.20685C9.25 3.27652 7.8125 3.30723 7.8125 4.20685C7.8125 4.20883 7.8125 4.5153 7.8125 4.9256H5.65625C4.46722 4.9256 3.5 5.89282 3.5 7.08185V12.1131C3.5 13.0505 4.9375 13.0249 4.9375 12.1131C4.9375 12.1068 4.9375 11.4804 4.9375 10.6756H25.0625V22.8944C25.0625 23.2906 24.7403 23.6131 24.3438 23.6131H18.5938C17.665 23.6131 17.6678 25.0506 18.5938 25.0506C18.6102 25.0506 24.3438 25.0506 24.3438 25.0506C25.5328 25.0506 26.5 24.0834 26.5 22.8944V7.08185C26.5 5.89282 25.5328 4.9256 24.3438 4.9256ZM4.9375 9.2381C4.9375 8.11111 4.9375 7.08185 4.9375 7.08185C4.9375 6.68563 5.25967 6.3631 5.65625 6.3631H7.8125C7.8125 6.7731 7.8125 7.07939 7.8125 7.08181C7.8125 8.00016 9.25 8.01245 9.25 7.08185V6.3631H14.2812C14.2812 6.77328 14.2812 7.0797 14.2812 7.08181C14.2812 7.98871 15.7188 7.99209 15.7188 7.08181C15.7188 7.07935 15.7188 6.7731 15.7188 6.3631H20.75C20.75 6.77293 20.75 7.07918 20.75 7.08181C20.75 7.99964 22.1875 8.01232 22.1875 7.08185V6.3631H24.3438C24.7403 6.3631 25.0625 6.68563 25.0625 7.08185V9.2381H4.9375ZM11.6168 20.9487C11.6168 20.9487 11.5309 21.0346 11.4062 21.1592C11.2811 21.034 11.1957 20.9487 11.1957 20.9487C10.539 20.2919 9.52708 21.3128 10.1793 21.965C10.1793 21.965 10.2652 22.0509 10.3899 22.1756C10.2649 22.3006 10.1793 22.3862 10.1793 22.3862C9.54294 23.0226 10.547 24.0512 11.1957 23.4025L11.4062 23.192C11.5314 23.3171 11.6168 23.4025 11.6168 23.4025C12.2753 24.0611 13.2741 23.0271 12.6332 22.3862C12.6332 22.3862 12.5473 22.3003 12.4226 22.1756L12.6332 21.965C13.2893 21.3089 12.2713 20.2942 11.6168 20.9487ZM7.09375 18.5819H7.8125C8.74178 18.5819 8.73112 17.1444 7.8125 17.1444H7.09375C6.16482 17.1444 6.16978 18.5819 7.09375 18.5819ZM7.8125 21.4569H7.09375C6.16544 21.4569 6.16886 22.8944 7.09375 22.8944H7.8125C8.74112 22.8944 8.73489 21.4569 7.8125 21.4569Z" fill="#F6F6F6"/>
<path d="M20.0312 16.4256H22.9062C23.3035 16.4256 23.625 16.1038 23.625 15.7069V12.8319C23.625 12.4349 23.3035 12.1131 22.9062 12.1131H20.0312C19.634 12.1131 19.3125 12.4349 19.3125 12.8319V15.7069C19.3125 16.1038 19.634 16.4256 20.0312 16.4256ZM20.75 13.5506H22.1875V14.9881H20.75V13.5506ZM19.3125 21.4569C19.3125 21.8538 19.634 22.1756 20.0312 22.1756H22.9062C23.3035 22.1756 23.625 21.8538 23.625 21.4569V18.5819C23.625 18.1849 23.3035 17.8631 22.9062 17.8631H20.0312C19.634 17.8631 19.3125 18.1849 19.3125 18.5819V21.4569ZM20.75 19.3006H22.1875V20.7381H20.75V19.3006Z" fill="#F6F6F6"/>
</svg>
