<svg width="33" height="33" viewBox="0 0 33 33" fill="none" xmlns="http://www.w3.org/2000/svg">
<path d="M22.4608 7.8719V6.5H20.9194V7.8719H13.3431V6.5H11.8016V7.8719H7V25.6449H27.17V7.8719H22.4608ZM25.6285 24.1035H8.54146V14.5233H25.6285V24.1035ZM8.54146 12.9818V9.41336H11.8016V10.7853H13.3431V9.41336H20.9194V10.7853H22.4608V9.41336H25.6285V12.9818H8.54146Z" fill="#00A0A3"/>
<path d="M16.6418 15.6254H15.1158V17.1669H16.6418V15.6254Z" fill="#00A0A3"/>
<path d="M14.0368 18.5388H12.5107V20.0803H14.0368V18.5388Z" fill="#00A0A3"/>
<path d="M16.6418 18.5388H15.1158V20.0803H16.6418V18.5388Z" fill="#00A0A3"/>
<path d="M11.424 18.5388H9.89794V20.0803H11.424V18.5388Z" fill="#00A0A3"/>
<path d="M14.0368 21.4599H12.5107V23.0013H14.0368V21.4599Z" fill="#00A0A3"/>
<path d="M16.6418 21.4599H15.1158V23.0013H16.6418V21.4599Z" fill="#00A0A3"/>
<path d="M11.424 21.4599H9.89794V23.0013H11.424V21.4599Z" fill="#00A0A3"/>
<path d="M21.8828 15.6254H20.3567V17.1669H21.8828V15.6254Z" fill="#00A0A3"/>
<path d="M24.4879 15.6254H22.9618V17.1669H24.4879V15.6254Z" fill="#00A0A3"/>
<path d="M19.2623 15.6254H17.744V17.1669H19.2623V15.6254Z" fill="#00A0A3"/>
<path d="M21.8828 18.5388H20.3567V20.0803H21.8828V18.5388Z" fill="#00A0A3"/>
<path d="M24.4879 18.5388H22.9618V20.0803H24.4879V18.5388Z" fill="#00A0A3"/>
<path d="M19.2623 18.5388H17.744V20.0803H19.2623V18.5388Z" fill="#00A0A3"/>
<path d="M19.2623 21.4599H17.744V23.0013H19.2623V21.4599Z" fill="#00A0A3"/>
</svg>
