<svg width="44" height="44" viewBox="0 0 44 44" fill="none" xmlns="http://www.w3.org/2000/svg">
<path d="M9.17612 35.4728H28.2886C29.0495 35.4728 29.7657 35.1595 30.3028 34.6224C30.7952 34.13 31.1533 33.4139 31.1533 32.6082V13.7643C31.1533 13.0033 30.8399 12.2872 30.3028 11.7501C29.8105 11.2577 29.0943 10.8996 28.2886 10.8996H4.96868C4.20776 10.8996 3.4916 11.2129 2.95448 11.7501C2.46212 12.2424 2.10404 12.9586 2.10404 13.7643V40.4412L8.59424 35.6966C8.77328 35.5624 8.95232 35.4728 9.17612 35.4728ZM37.5987 29.1169C37.0168 29.1169 36.5692 28.6693 36.5692 28.0874C36.5692 27.5056 37.0168 27.058 37.5987 27.058H39.0758C39.8367 27.058 40.5528 26.7446 41.09 26.2075C41.5823 25.7152 41.9404 24.999 41.9404 24.1933V5.34938C41.9404 4.58846 41.6271 3.8723 41.09 3.33518C40.5976 2.84282 39.8814 2.48474 39.0758 2.48474H15.7558C15.0844 2.48474 14.5026 2.70854 14.0102 3.11138C13.5178 3.51422 13.1598 4.05134 12.9807 4.67798C12.8464 5.2151 12.3093 5.57318 11.7274 5.4389C11.1903 5.30462 10.8322 4.7675 10.9665 4.18562C11.2351 3.11138 11.8617 2.17142 12.7122 1.50002C13.5626 0.828621 14.5921 0.425781 15.7111 0.425781H39.031C40.3738 0.425781 41.5823 0.962901 42.4775 1.8581C43.3727 2.7533 43.9098 3.96182 43.9098 5.30462V24.2381C43.9098 25.5809 43.3727 26.7894 42.4775 27.6846C41.5823 28.5798 40.3738 29.1169 39.031 29.1169H37.5987ZM8.28092 27.8636C7.69904 27.8636 7.25144 27.416 7.25144 26.8342C7.25144 26.2523 7.69904 25.8047 8.28092 25.8047H24.9764C25.5583 25.8047 26.0059 26.2523 26.0059 26.8342C26.0059 27.416 25.5583 27.8636 24.9764 27.8636H8.28092ZM8.28092 20.6125C7.69904 20.6125 7.25144 20.1649 7.25144 19.5831C7.25144 19.0012 7.69904 18.5536 8.28092 18.5536H24.9764C25.5583 18.5536 26.0059 19.0012 26.0059 19.5831C26.0059 20.1649 25.5583 20.6125 24.9764 20.6125H8.28092ZM28.2886 37.5318H9.53419L1.79072 43.3058C1.61168 43.4849 1.38788 43.5744 1.11932 43.5744C0.537443 43.5744 0.0898438 43.1268 0.0898438 42.5449V13.7643C0.0898438 12.4215 0.626963 11.2129 1.52216 10.3177C2.41736 9.42254 3.62588 8.88542 4.96868 8.88542H28.2886C29.6314 8.88542 30.8399 9.42254 31.7351 10.3177C32.6303 11.2129 33.1675 12.4215 33.1675 13.7643V32.653C33.1675 33.9958 32.6303 35.2043 31.7351 36.0995C30.8399 36.9947 29.6314 37.5318 28.2886 37.5318Z" fill="white"/>
</svg>
