<svg width="30" height="30" viewBox="0 0 30 30" fill="none" xmlns="http://www.w3.org/2000/svg">
<path d="M12.5 16.25H5C4.25 16.25 3.75 16.75 3.75 17.5V25C3.75 25.75 4.25 26.25 5 26.25H12.5C13.25 26.25 13.75 25.75 13.75 25V17.5C13.75 16.75 13.25 16.25 12.5 16.25ZM12.5 3.75H5C4.25 3.75 3.75 4.25 3.75 5V12.5C3.75 13.25 4.25 13.75 5 13.75H12.5C13.25 13.75 13.75 13.25 13.75 12.5V5C13.75 4.25 13.25 3.75 12.5 3.75ZM25 20H22.5V17.5C22.5 16.75 22 16.25 21.25 16.25C20.5 16.25 20 16.75 20 17.5V20H17.5C16.75 20 16.25 20.5 16.25 21.25C16.25 22 16.75 22.5 17.5 22.5H20V25C20 25.75 20.5 26.25 21.25 26.25C22 26.25 22.5 25.75 22.5 25V22.5H25C25.75 22.5 26.25 22 26.25 21.25C26.25 20.5 25.75 20 25 20ZM25 3.75H17.5C16.75 3.75 16.25 4.25 16.25 5V12.5C16.25 13.25 16.75 13.75 17.5 13.75H25C25.75 13.75 26.25 13.25 26.25 12.5V5C26.25 4.25 25.75 3.75 25 3.75Z" fill="white"/>
</svg>
