<svg width="21" height="20" viewBox="0 0 21 20" fill="none" xmlns="http://www.w3.org/2000/svg">
<path d="M15.9804 1.3719V0H14.4389V1.3719H6.86264V0H5.32118V1.3719H0.519531V19.1449H20.6895V1.3719H15.9804ZM19.1481 17.6035H2.06099V8.0233H19.1481V17.6035ZM2.06099 6.48184V2.91336H5.32118V4.28526H6.86264V2.91336H14.4389V4.28526H15.9804V2.91336H19.1481V6.48184H2.06099Z" fill="#00A0A3"/>
<path d="M10.1614 9.12544H8.63532V10.6669H10.1614V9.12544Z" fill="#00A0A3"/>
<path d="M7.55629 12.0388H6.03025V13.5803H7.55629V12.0388Z" fill="#00A0A3"/>
<path d="M10.1614 12.0388H8.63532V13.5803H10.1614V12.0388Z" fill="#00A0A3"/>
<path d="M4.94352 12.0388H3.41748V13.5803H4.94352V12.0388Z" fill="#00A0A3"/>
<path d="M7.55629 14.9599H6.03025V16.5013H7.55629V14.9599Z" fill="#00A0A3"/>
<path d="M10.1614 14.9599H8.63532V16.5013H10.1614V14.9599Z" fill="#00A0A3"/>
<path d="M4.94352 14.9599H3.41748V16.5013H4.94352V14.9599Z" fill="#00A0A3"/>
<path d="M15.4023 9.12544H13.8763V10.6669H15.4023V9.12544Z" fill="#00A0A3"/>
<path d="M18.0074 9.12544H16.4813V10.6669H18.0074V9.12544Z" fill="#00A0A3"/>
<path d="M12.7818 9.12544H11.2635V10.6669H12.7818V9.12544Z" fill="#00A0A3"/>
<path d="M15.4023 12.0388H13.8763V13.5803H15.4023V12.0388Z" fill="#00A0A3"/>
<path d="M18.0074 12.0388H16.4813V13.5803H18.0074V12.0388Z" fill="#00A0A3"/>
<path d="M12.7818 12.0388H11.2635V13.5803H12.7818V12.0388Z" fill="#00A0A3"/>
<path d="M12.7818 14.9599H11.2635V16.5013H12.7818V14.9599Z" fill="#00A0A3"/>
</svg>
