<svg width="16" height="16" viewBox="0 0 16 16" fill="none" xmlns="http://www.w3.org/2000/svg">
<path d="M2.375 4.49123C2.375 4.18845 2.59086 3.94299 2.85714 3.94299L4.52229 3.9427C4.85314 3.93316 5.14501 3.69396 5.25759 3.34007C5.26055 3.33077 5.26395 3.31929 5.27616 3.27765L5.34791 3.03285C5.39181 2.88275 5.43006 2.75199 5.48359 2.63511C5.69506 2.17335 6.0863 1.8527 6.53842 1.7706C6.65286 1.74983 6.77405 1.74991 6.91316 1.75001H9.08695C9.22606 1.74991 9.34725 1.74983 9.46169 1.7706C9.91381 1.8527 10.3051 2.17335 10.5165 2.63511C10.57 2.75199 10.6083 2.88275 10.6522 3.03285L10.7239 3.27765C10.7362 3.31929 10.7396 3.33077 10.7425 3.34007C10.8551 3.69396 11.2049 3.93346 11.5357 3.94299H13.1429C13.4091 3.94299 13.625 4.18845 13.625 4.49123C13.625 4.79402 13.4091 5.03947 13.1429 5.03947H2.85714C2.59086 5.03947 2.375 4.79402 2.375 4.49123Z" fill="#083160"/>
<path fill-rule="evenodd" clip-rule="evenodd" d="M7.74725 14.25H8.25275C9.99194 14.25 10.8615 14.25 11.4269 13.6963C11.9923 13.1426 12.0502 12.2343 12.1659 10.4178L12.3326 7.80038C12.3953 6.81476 12.4267 6.32194 12.1431 6.00966C11.8594 5.69737 11.3805 5.69737 10.4225 5.69737H5.57753C4.61954 5.69737 4.14055 5.69737 3.85691 6.00966C3.57326 6.32194 3.60465 6.81476 3.66742 7.80038L3.83412 10.4178C3.94981 12.2343 4.00765 13.1426 4.57306 13.6963C5.13846 14.25 6.00805 14.25 7.74725 14.25ZM10.0289 8.21599C10.0547 7.94484 9.86674 7.70304 9.60914 7.67592C9.35154 7.64881 9.12184 7.84664 9.09608 8.1178L8.78358 11.4073C8.75782 11.6784 8.94576 11.9202 9.20336 11.9473C9.46096 11.9745 9.69066 11.7766 9.71642 11.5055L10.0289 8.21599ZM6.39086 7.67592C6.64846 7.64881 6.87816 7.84664 6.90392 8.1178L7.21642 11.4073C7.24218 11.6784 7.05424 11.9202 6.79664 11.9473C6.53904 11.9745 6.30934 11.7766 6.28358 11.5055L5.97108 8.21599C5.94532 7.94484 6.13326 7.70304 6.39086 7.67592Z" fill="#083160"/>
</svg>
