<svg width="23" height="22" viewBox="0 0 23 22" fill="none" xmlns="http://www.w3.org/2000/svg">
<path fill-rule="evenodd" clip-rule="evenodd" d="M10.501 17.68C10.501 18.1667 10.6943 18.6334 11.0384 18.9775C11.3826 19.3217 11.8493 19.515 12.336 19.515C12.8226 19.515 13.2894 19.3217 13.6335 18.9775C13.9776 18.6334 14.171 18.1667 14.171 17.68C14.171 17.1933 13.9776 16.7266 13.6335 16.3825C13.2894 16.0383 12.8226 15.845 12.336 15.845C11.8493 15.845 11.3826 16.0383 11.0384 16.3825C10.6943 16.7266 10.501 17.1933 10.501 17.68ZM10.501 11.2575C10.501 11.7442 10.6943 12.2109 11.0384 12.555C11.3826 12.8992 11.8493 13.0925 12.336 13.0925C12.8226 13.0925 13.2894 12.8992 13.6335 12.555C13.9776 12.2109 14.171 11.7442 14.171 11.2575C14.171 10.7708 13.9776 10.3041 13.6335 9.95996C13.2894 9.61583 12.8226 9.4225 12.336 9.4225C11.8493 9.4225 11.3826 9.61583 11.0384 9.95996C10.6943 10.3041 10.501 10.7708 10.501 11.2575ZM12.336 6.67C11.8493 6.67 11.3826 6.47667 11.0384 6.13254C10.6943 5.78841 10.501 5.32167 10.501 4.835C10.501 4.34833 10.6943 3.88159 11.0384 3.53746C11.3826 3.19333 11.8493 3 12.336 3C12.8226 3 13.2894 3.19333 13.6335 3.53746C13.9776 3.88159 14.171 4.34833 14.171 4.835C14.171 5.32167 13.9776 5.78841 13.6335 6.13254C13.2894 6.47667 12.8226 6.67 12.336 6.67Z" fill="#083160"/>
</svg>
