<svg width="16" height="16" viewBox="0 0 16 16" fill="none" xmlns="http://www.w3.org/2000/svg">
<path d="M12.6669 13.3336H3.33353C3.15672 13.3336 2.98715 13.4038 2.86213 13.5288C2.7371 13.6538 2.66686 13.8234 2.66686 14.0002C2.66686 14.177 2.7371 14.3466 2.86213 14.4716C2.98715 14.5967 3.15672 14.6669 3.33353 14.6669H12.6669C12.8437 14.6669 13.0132 14.5967 13.1383 14.4716C13.2633 14.3466 13.3335 14.177 13.3335 14.0002C13.3335 13.8234 13.2633 13.6538 13.1383 13.5288C13.0132 13.4038 12.8437 13.3336 12.6669 13.3336ZM3.33353 12.0002H3.39353L6.17353 11.7469C6.47806 11.7166 6.76289 11.5824 6.9802 11.3669L12.9802 5.3669C13.2131 5.12088 13.3389 4.79257 13.3302 4.45392C13.3214 4.11527 13.1788 3.7939 12.9335 3.56023L11.1069 1.73356C10.8685 1.50963 10.5561 1.38114 10.2291 1.37253C9.90211 1.36393 9.58338 1.47581 9.33353 1.6869L3.33353 7.6869C3.11804 7.90421 2.98387 8.18903 2.95353 8.49356L2.66686 11.2736C2.65788 11.3712 2.67055 11.4696 2.70397 11.5618C2.73739 11.654 2.79073 11.7377 2.8602 11.8069C2.92249 11.8687 2.99637 11.9176 3.07759 11.9507C3.15882 11.9839 3.24579 12.0007 3.33353 12.0002ZM10.1802 2.6669L12.0002 4.4869L10.6669 5.7869L8.8802 4.00023L10.1802 2.6669Z" fill="#083160"/>
</svg>
