<svg width="22" height="23" viewBox="0 0 22 23" fill="none" xmlns="http://www.w3.org/2000/svg">
<path d="M17.4169 19.243H4.58361C4.34049 19.243 4.10733 19.3395 3.93542 19.5114C3.76352 19.6833 3.66694 19.9165 3.66694 20.1596C3.66694 20.4027 3.76352 20.6359 3.93542 20.8078C4.10733 20.9797 4.34049 21.0763 4.58361 21.0763H17.4169C17.6601 21.0763 17.8932 20.9797 18.0651 20.8078C18.237 20.6359 18.3336 20.4027 18.3336 20.1596C18.3336 19.9165 18.237 19.6833 18.0651 19.5114C17.8932 19.3395 17.6601 19.243 17.4169 19.243ZM4.58361 17.4096H4.66611L8.48861 17.0613C8.90734 17.0196 9.29897 16.8351 9.59777 16.5388L17.8478 8.28879C18.168 7.95051 18.341 7.49908 18.329 7.03344C18.317 6.5678 18.1208 6.12592 17.7836 5.80462L15.2719 3.29295C14.9441 2.98504 14.5146 2.80836 14.065 2.79653C13.6154 2.7847 13.1772 2.93854 12.8336 3.22879L4.58361 11.4788C4.28731 11.7776 4.10282 12.1692 4.06111 12.588L3.66694 16.4105C3.65459 16.5447 3.67201 16.68 3.71796 16.8068C3.76391 16.9336 3.83726 17.0486 3.93277 17.1438C4.01843 17.2287 4.12001 17.296 4.23169 17.3416C4.34338 17.3872 4.46297 17.4103 4.58361 17.4096ZM13.9978 4.57629L16.5003 7.07879L14.6669 8.86629L12.2103 6.40962L13.9978 4.57629ZM5.83944 12.7438L11.0003 7.61962L13.4753 10.0946L8.34194 15.228L5.59194 15.4846L5.83944 12.7438Z" fill="#00A0A3"/>
</svg>
