<svg width="30" height="30" viewBox="0 0 30 30" fill="none" xmlns="http://www.w3.org/2000/svg">
<path d="M14.9999 17.5438C15.7652 17.545 16.5102 17.2967 17.1218 16.8365L17.1219 16.8363L18.7544 15.6017L25.289 21.4296C25.2316 21.5052 25.1688 21.5772 25.101 21.645C24.7052 22.0408 24.1684 22.2632 23.6087 22.2632H6.39105C5.83131 22.2632 5.2945 22.0408 4.89871 21.645C4.83087 21.5772 4.76812 21.5052 4.71071 21.4296L11.2454 15.6017L12.8778 16.8363L12.878 16.8365C13.4895 17.2967 14.2345 17.545 14.9999 17.5438ZM14.9999 17.5438C14.9998 17.5438 14.9997 17.5438 14.9997 17.5438L14.9999 17.4438L15 17.5438C15 17.5438 14.9999 17.5438 14.9999 17.5438ZM23.6087 23.6689H23.6088C24.541 23.6678 25.4347 23.297 26.0938 22.6378C26.753 21.9787 27.1238 21.085 27.1249 20.1528V20.1527V9.84783V9.84772C27.1238 8.91553 26.753 8.02184 26.0938 7.36268C25.4347 6.70353 24.541 6.33274 23.6088 6.33164H23.6087L6.39105 6.33164L6.39093 6.33164C5.45874 6.33274 4.56505 6.70353 3.9059 7.36268C3.24674 8.02184 2.87595 8.91553 2.87485 9.84772V9.84783L2.87485 20.1527L2.87485 20.1528C2.8754 20.6193 2.96854 21.0762 3.14407 21.4988C3.14811 21.5115 3.15252 21.5242 3.1573 21.5367C3.17056 21.5714 3.18649 21.6049 3.20489 21.6368C3.3768 22.0054 3.61285 22.3448 3.9059 22.6378C4.56505 23.297 5.45874 23.6678 6.39093 23.6689H6.39105H23.6087ZM25.7191 19.9313L19.8979 14.7368L25.7191 10.3341V19.9313ZM25.101 8.3555C25.2314 8.48592 25.343 8.63166 25.434 8.78848L18.4581 14.0705C18.3935 14.105 18.3343 14.1497 18.2827 14.2032L16.2744 15.7239C16.2743 15.724 16.2742 15.7241 16.2741 15.7241C15.906 15.9988 15.4591 16.1472 14.9999 16.1472C14.5406 16.1472 14.0937 15.9988 13.7256 15.7241C13.7255 15.7241 13.7254 15.724 13.7253 15.7239L11.717 14.2032C11.6655 14.1497 11.6062 14.105 11.5416 14.0705L4.56569 8.78848C4.6567 8.63166 4.76829 8.48592 4.89871 8.3555C5.2945 7.95971 5.83131 7.73736 6.39105 7.73736H23.6087C24.1684 7.73736 24.7052 7.95971 25.101 8.3555ZM4.28057 19.9281V10.3341L10.1016 14.7367L4.28057 19.9281Z" fill="white" stroke="white" stroke-width="0.2"/>
</svg>
