<svg width="22" height="22" viewBox="0 0 22 22" fill="none" xmlns="http://www.w3.org/2000/svg">
<path fill-rule="evenodd" clip-rule="evenodd" d="M5.50033 14.6667C5.50033 15.1729 5.91074 15.5833 6.41699 15.5833H15.5837C16.0899 15.5833 16.5003 15.1729 16.5003 14.6667V14.2083H18.3337V14.6667C18.3337 16.1855 17.1025 17.4167 15.5837 17.4167H6.41699C4.89821 17.4167 3.66699 16.1855 3.66699 14.6667V14.2083H5.50033V14.6667ZM11.917 5.5V14.2083H10.0837V5.5H11.917Z" fill="#083160"/>
<path fill-rule="evenodd" clip-rule="evenodd" d="M11.0001 6.33803L8.43991 8.89818L7.14355 7.60182L10.3519 4.39348C10.7098 4.03551 11.2903 4.03551 11.6482 4.39348L14.8566 7.60182L13.5602 8.89818L11.0001 6.33803Z" fill="#083160"/>
</svg>
