<svg width="13" height="14" viewBox="0 0 13 14" fill="none" xmlns="http://www.w3.org/2000/svg">
<g clip-path="url(#clip0_626_6768)">
<path d="M11.257 5.15582L11.6787 4.83118L11.257 5.15582ZM11.257 8.66388L10.8352 8.33925L11.257 8.66388ZM11.9355 6.90985H11.4033H11.9355ZM1.96954 5.15582L2.3913 5.48045L1.96954 5.15582ZM1.96954 8.66388L1.54779 8.98852H1.54779L1.96954 8.66388ZM2.3913 5.48045C3.24651 4.36939 4.62333 3.18428 6.61325 3.18428V2.11984C4.15178 2.11984 2.49902 3.59538 1.54779 4.83118L2.3913 5.48045ZM6.61325 3.18428C8.60318 3.18428 9.98 4.36939 10.8352 5.48045L11.6787 4.83118C10.7275 3.59538 9.07473 2.11984 6.61325 2.11984V3.18428ZM10.8352 8.33925C9.98 9.45031 8.60318 10.6354 6.61325 10.6354V11.6999C9.07473 11.6999 10.7275 10.2243 11.6787 8.98852L10.8352 8.33925ZM6.61325 10.6354C4.62333 10.6354 3.24651 9.45031 2.3913 8.33925L1.54779 8.98852C2.49902 10.2243 4.15178 11.6999 6.61325 11.6999V10.6354ZM10.8352 5.48045C11.0711 5.78685 11.1968 5.95499 11.279 6.14109C11.3534 6.30943 11.4033 6.52229 11.4033 6.90985H12.4677C12.4677 6.4249 12.4045 6.05457 12.2527 5.71095C12.1087 5.38508 11.8952 5.11247 11.6787 4.83118L10.8352 5.48045ZM11.6787 8.98852C11.8952 8.70723 12.1087 8.43462 12.2527 8.10875C12.4045 7.76513 12.4677 7.3948 12.4677 6.90985H11.4033C11.4033 7.29741 11.3534 7.51027 11.279 7.67861C11.1968 7.86471 11.0711 8.03286 10.8352 8.33925L11.6787 8.98852ZM1.54779 4.83118C1.33128 5.11247 1.11778 5.38508 0.973815 5.71095C0.822009 6.05457 0.758792 6.4249 0.758792 6.90985H1.82324C1.82324 6.52229 1.87311 6.30944 1.94748 6.14109C2.0297 5.95499 2.15546 5.78685 2.3913 5.48045L1.54779 4.83118ZM2.3913 8.33925C2.15546 8.03286 2.0297 7.86471 1.94748 7.67861C1.87311 7.51027 1.82324 7.29741 1.82324 6.90985H0.758792C0.758792 7.3948 0.822009 7.76513 0.973815 8.10875C1.11778 8.43462 1.33128 8.70723 1.54779 8.98852L2.3913 8.33925ZM7.6777 6.90985C7.6777 7.49773 7.20113 7.9743 6.61325 7.9743V9.03875C7.78901 9.03875 8.74215 8.08561 8.74215 6.90985H7.6777ZM6.61325 7.9743C6.02538 7.9743 5.54881 7.49773 5.54881 6.90985H4.48436C4.48436 8.08561 5.4375 9.03875 6.61325 9.03875V7.9743ZM5.54881 6.90985C5.54881 6.32197 6.02538 5.8454 6.61325 5.8454V4.78096C5.4375 4.78096 4.48436 5.73409 4.48436 6.90985H5.54881ZM6.61325 5.8454C7.20113 5.8454 7.6777 6.32197 7.6777 6.90985H8.74215C8.74215 5.73409 7.78901 4.78096 6.61325 4.78096V5.8454Z" fill="#00A0A3"/>
</g>
<defs>
<clipPath id="clip0_626_6768">
<rect width="12.7734" height="12.7734" fill="white" transform="translate(0.226562 0.523165)"/>
</clipPath>
</defs>
</svg>
