<svg width="29" height="28" viewBox="0 0 29 28" fill="none" xmlns="http://www.w3.org/2000/svg">
<path d="M11.4574 20.7092C10.979 20.7092 10.5824 20.3125 10.5824 19.8342V14.9459L9.74237 15.7859C9.40404 16.1242 8.84404 16.1242 8.5057 15.7859C8.16737 15.4475 8.16737 14.8875 8.5057 14.5492L10.839 12.2159C11.084 11.9709 11.469 11.8892 11.7957 12.0292C12.1224 12.1575 12.3324 12.4842 12.3324 12.8342V19.8342C12.3324 20.3125 11.9357 20.7092 11.4574 20.7092Z" fill="#BBBBBB"/>
<path d="M13.7913 16.0414C13.5697 16.0414 13.348 15.9597 13.173 15.7847L10.8397 13.4514C10.5014 13.113 10.5014 12.553 10.8397 12.2147C11.178 11.8764 11.738 11.8764 12.0764 12.2147L14.4097 14.548C14.748 14.8864 14.748 15.4464 14.4097 15.7847C14.2347 15.9597 14.013 16.0414 13.7913 16.0414Z" fill="#BBBBBB"/>
<path d="M18.4557 26.5404H11.4557C5.12073 26.5404 2.41406 23.8337 2.41406 17.4987V10.4987C2.41406 4.1637 5.12073 1.45703 11.4557 1.45703H17.2891C17.7674 1.45703 18.1641 1.8537 18.1641 2.33203C18.1641 2.81036 17.7674 3.20703 17.2891 3.20703H11.4557C6.0774 3.20703 4.16406 5.12036 4.16406 10.4987V17.4987C4.16406 22.877 6.0774 24.7904 11.4557 24.7904H18.4557C23.8341 24.7904 25.7474 22.877 25.7474 17.4987V11.6654C25.7474 11.187 26.1441 10.7904 26.6224 10.7904C27.1007 10.7904 27.4974 11.187 27.4974 11.6654V17.4987C27.4974 23.8337 24.7907 26.5404 18.4557 26.5404Z" fill="#BBBBBB"/>
<path d="M26.6224 12.5387H21.9557C17.9657 12.5387 16.4141 10.987 16.4141 6.99698V2.33031C16.4141 1.98031 16.6241 1.65364 16.9507 1.52531C17.2774 1.38531 17.6507 1.46698 17.9074 1.71198L27.2407 11.0453C27.4857 11.2903 27.5674 11.6753 27.4274 12.002C27.2874 12.3287 26.9724 12.5387 26.6224 12.5387ZM18.1641 4.44198V6.99698C18.1641 10.007 18.9457 10.7886 21.9557 10.7886H24.5107L18.1641 4.44198Z" fill="#BBBBBB"/>
</svg>
