<svg width="30" height="30" viewBox="0 0 30 30" fill="none" xmlns="http://www.w3.org/2000/svg">
<path d="M10.8611 8C10.3088 8 9.86111 8.44772 9.86111 9C9.86111 9.55228 10.3088 10 10.8611 10V8ZM23.5 10C24.0523 10 24.5 9.55228 24.5 9C24.5 8.44772 24.0523 8 23.5 8V10ZM10.8611 14.4024C10.3088 14.4024 9.86111 14.8502 9.86111 15.4024C9.86111 15.9547 10.3088 16.4024 10.8611 16.4024V14.4024ZM23.5 16.4024C24.0523 16.4024 24.5 15.9547 24.5 15.4024C24.5 14.8502 24.0523 14.4024 23.5 14.4024V16.4024ZM10.8611 20.8049C10.3088 20.8049 9.86111 21.2526 9.86111 21.8049C9.86111 22.3572 10.3088 22.8049 10.8611 22.8049V20.8049ZM23.5 22.8049C24.0523 22.8049 24.5 22.3572 24.5 21.8049C24.5 21.2526 24.0523 20.8049 23.5 20.8049V22.8049ZM6 8C5.44772 8 5 8.44772 5 9C5 9.55228 5.44772 10 6 10V8ZM6.00972 10C6.56201 10 7.00972 9.55228 7.00972 9C7.00972 8.44772 6.56201 8 6.00972 8V10ZM6 14.4024C5.44772 14.4024 5 14.8502 5 15.4024C5 15.9547 5.44772 16.4024 6 16.4024V14.4024ZM6.00972 16.4024C6.56201 16.4024 7.00972 15.9547 7.00972 15.4024C7.00972 14.8502 6.56201 14.4024 6.00972 14.4024V16.4024ZM6 20.8049C5.44772 20.8049 5 21.2526 5 21.8049C5 22.3572 5.44772 22.8049 6 22.8049V20.8049ZM6.00972 22.8049C6.56201 22.8049 7.00972 22.3572 7.00972 21.8049C7.00972 21.2526 6.56201 20.8049 6.00972 20.8049V22.8049ZM10.8611 10H23.5V8H10.8611V10ZM10.8611 16.4024H23.5V14.4024H10.8611V16.4024ZM10.8611 22.8049H23.5V20.8049H10.8611V22.8049ZM6 10H6.00972V8H6V10ZM6 16.4024H6.00972V14.4024H6V16.4024ZM6 22.8049H6.00972V20.8049H6V22.8049Z" fill="#083160"/>
</svg>
