<svg width="24" height="24" viewBox="0 0 24 24" fill="none" xmlns="http://www.w3.org/2000/svg">
<mask id="path-1-outside-1_1318_6924" maskUnits="userSpaceOnUse" x="3.9502" y="3.26367" width="16" height="17" fill="black">
<rect fill="white" x="3.9502" y="3.26367" width="16" height="17"/>
<path d="M15.3011 15.95L18.905 12.3461C19.0942 12.1569 19.0942 11.8376 18.905 11.6484L15.3011 8.04442C15.1184 7.86176 14.7827 7.84859 14.6033 8.04442C14.4223 8.2419 14.4075 8.54799 14.6033 8.74217L18.2072 12.3461V11.6484L14.6033 15.2523C14.4206 15.435 14.4075 15.7707 14.6033 15.95C14.8008 16.1311 15.1069 16.1459 15.3011 15.95Z"/>
<path d="M18.5561 11.5052H9.93628C9.53969 11.5052 9.14309 11.4986 8.74814 11.5052H8.73168C8.47332 11.5052 8.22647 11.7323 8.23799 11.9989C8.24951 12.2671 8.45521 12.4926 8.73168 12.4926H17.3515C17.7481 12.4926 18.1447 12.4992 18.5397 12.4926H18.5561C18.8145 12.4926 19.0613 12.2655 19.0498 11.9989C19.0383 11.7306 18.8326 11.5052 18.5561 11.5052Z"/>
<path d="M16.8019 16.6725V18.2474C16.8019 18.3444 16.8068 18.4432 16.7936 18.5386C16.8002 18.4942 16.8052 18.4514 16.8117 18.407C16.8019 18.4728 16.7838 18.537 16.7591 18.5995L16.8085 18.481C16.7887 18.5271 16.7657 18.5732 16.7377 18.616C16.6784 18.7081 16.7821 18.5699 16.7574 18.5946C16.7393 18.6127 16.7245 18.6324 16.7064 18.6505C16.6916 18.6653 16.6752 18.6802 16.6587 18.695C16.5995 18.7493 16.7723 18.6176 16.6719 18.6818C16.6291 18.7098 16.5846 18.7328 16.5369 18.7526L16.6554 18.7032C16.5929 18.7279 16.5287 18.7443 16.4629 18.7559C16.5073 18.7493 16.5501 18.7443 16.5945 18.7378C16.4744 18.7526 16.351 18.746 16.2292 18.746H7.481C7.07782 18.746 6.67464 18.7476 6.27146 18.746C6.22867 18.746 6.18753 18.7427 6.14639 18.7378C6.19082 18.7443 6.23361 18.7493 6.27804 18.7559C6.21221 18.746 6.14803 18.7279 6.0855 18.7032L6.20399 18.7526C6.15791 18.7328 6.11183 18.7098 6.06904 18.6818C5.97689 18.6226 6.11512 18.7262 6.09044 18.7015C6.07234 18.6834 6.05259 18.6686 6.03449 18.6505C6.01967 18.6357 6.00486 18.6193 5.99005 18.6028C5.93575 18.5436 6.0674 18.7164 6.00322 18.616C5.97524 18.5732 5.9522 18.5288 5.93246 18.481L5.98183 18.5995C5.95714 18.537 5.94068 18.4728 5.92917 18.407C5.93575 18.4514 5.94068 18.4942 5.94727 18.5386C5.92917 18.3955 5.93904 18.2474 5.93904 18.1025V5.58585C5.93904 5.54306 5.94233 5.50027 5.94727 5.45749C5.94068 5.50192 5.93575 5.54471 5.92917 5.58914C5.93904 5.52331 5.95714 5.45913 5.98183 5.3966L5.93246 5.51508C5.9522 5.46901 5.97524 5.42293 6.00322 5.38014C6.06246 5.28799 5.95879 5.42622 5.98347 5.40154C6.00157 5.38343 6.01638 5.36369 6.03449 5.34558C6.0493 5.33077 6.06575 5.31596 6.08221 5.30115C6.14145 5.24685 5.96866 5.3785 6.06904 5.31432C6.11183 5.28634 6.15626 5.2633 6.20399 5.24356L6.0855 5.29292C6.14803 5.26824 6.21221 5.25178 6.27804 5.24026C6.23361 5.24685 6.19082 5.25178 6.14639 5.25837C6.26652 5.24356 6.38994 5.25014 6.51172 5.25014H15.2599C15.6631 5.25014 16.0663 5.24849 16.4695 5.25014C16.5122 5.25014 16.5534 5.25343 16.5945 5.25837C16.5501 5.25178 16.5073 5.24685 16.4629 5.24026C16.5287 5.25014 16.5929 5.26824 16.6554 5.29292L16.5369 5.24356C16.583 5.2633 16.6291 5.28634 16.6719 5.31432C16.764 5.37356 16.6258 5.26989 16.6505 5.29457C16.6686 5.31267 16.6883 5.32748 16.7064 5.34558C16.7212 5.3604 16.736 5.37685 16.7509 5.39331C16.8052 5.45255 16.6735 5.27976 16.7377 5.38014C16.7657 5.42293 16.7887 5.46736 16.8085 5.51508L16.7591 5.3966C16.7838 5.45913 16.8002 5.52331 16.8117 5.58914C16.8052 5.54471 16.8002 5.50192 16.7936 5.45749C16.8216 5.67307 16.8019 5.90181 16.8019 6.11903V7.32528C16.8019 7.58365 17.029 7.83049 17.2956 7.81897C17.5638 7.80745 17.7893 7.60175 17.7893 7.32528V5.57762C17.7876 5.37027 17.7399 5.18431 17.6543 4.99671C17.4568 4.56391 17.0125 4.30554 16.5501 4.26769C16.5073 4.2644 16.4662 4.2644 16.4234 4.2644H6.5759C6.47222 4.2644 6.36855 4.26276 6.26323 4.2644C5.5408 4.27263 4.95824 4.85683 4.95166 5.57926C4.94837 5.88206 4.95166 6.18321 4.95166 6.48601V18.1667C4.95166 18.2523 4.95001 18.3379 4.95166 18.4234C4.95989 19.1459 5.54409 19.7284 6.26652 19.735C6.62856 19.7383 6.98895 19.735 7.35099 19.735H16.4316C16.5386 19.735 16.6422 19.7251 16.7476 19.7054C17.21 19.6215 17.577 19.2578 17.7267 18.8233C17.7893 18.639 17.7893 18.4465 17.7893 18.2539V16.6741C17.7893 16.4158 17.5622 16.1689 17.2956 16.1804C17.0273 16.1903 16.8019 16.396 16.8019 16.6725Z"/>
</mask>
<path d="M15.3011 15.95L18.905 12.3461C19.0942 12.1569 19.0942 11.8376 18.905 11.6484L15.3011 8.04442C15.1184 7.86176 14.7827 7.84859 14.6033 8.04442C14.4223 8.2419 14.4075 8.54799 14.6033 8.74217L18.2072 12.3461V11.6484L14.6033 15.2523C14.4206 15.435 14.4075 15.7707 14.6033 15.95C14.8008 16.1311 15.1069 16.1459 15.3011 15.95Z" fill="#03B517"/>
<path d="M18.5561 11.5052H9.93628C9.53969 11.5052 9.14309 11.4986 8.74814 11.5052H8.73168C8.47332 11.5052 8.22647 11.7323 8.23799 11.9989C8.24951 12.2671 8.45521 12.4926 8.73168 12.4926H17.3515C17.7481 12.4926 18.1447 12.4992 18.5397 12.4926H18.5561C18.8145 12.4926 19.0613 12.2655 19.0498 11.9989C19.0383 11.7306 18.8326 11.5052 18.5561 11.5052Z" fill="#03B517"/>
<path d="M16.8019 16.6725V18.2474C16.8019 18.3444 16.8068 18.4432 16.7936 18.5386C16.8002 18.4942 16.8052 18.4514 16.8117 18.407C16.8019 18.4728 16.7838 18.537 16.7591 18.5995L16.8085 18.481C16.7887 18.5271 16.7657 18.5732 16.7377 18.616C16.6784 18.7081 16.7821 18.5699 16.7574 18.5946C16.7393 18.6127 16.7245 18.6324 16.7064 18.6505C16.6916 18.6653 16.6752 18.6802 16.6587 18.695C16.5995 18.7493 16.7723 18.6176 16.6719 18.6818C16.6291 18.7098 16.5846 18.7328 16.5369 18.7526L16.6554 18.7032C16.5929 18.7279 16.5287 18.7443 16.4629 18.7559C16.5073 18.7493 16.5501 18.7443 16.5945 18.7378C16.4744 18.7526 16.351 18.746 16.2292 18.746H7.481C7.07782 18.746 6.67464 18.7476 6.27146 18.746C6.22867 18.746 6.18753 18.7427 6.14639 18.7378C6.19082 18.7443 6.23361 18.7493 6.27804 18.7559C6.21221 18.746 6.14803 18.7279 6.0855 18.7032L6.20399 18.7526C6.15791 18.7328 6.11183 18.7098 6.06904 18.6818C5.97689 18.6226 6.11512 18.7262 6.09044 18.7015C6.07234 18.6834 6.05259 18.6686 6.03449 18.6505C6.01967 18.6357 6.00486 18.6193 5.99005 18.6028C5.93575 18.5436 6.0674 18.7164 6.00322 18.616C5.97524 18.5732 5.9522 18.5288 5.93246 18.481L5.98183 18.5995C5.95714 18.537 5.94068 18.4728 5.92917 18.407C5.93575 18.4514 5.94068 18.4942 5.94727 18.5386C5.92917 18.3955 5.93904 18.2474 5.93904 18.1025V5.58585C5.93904 5.54306 5.94233 5.50027 5.94727 5.45749C5.94068 5.50192 5.93575 5.54471 5.92917 5.58914C5.93904 5.52331 5.95714 5.45913 5.98183 5.3966L5.93246 5.51508C5.9522 5.46901 5.97524 5.42293 6.00322 5.38014C6.06246 5.28799 5.95879 5.42622 5.98347 5.40154C6.00157 5.38343 6.01638 5.36369 6.03449 5.34558C6.0493 5.33077 6.06575 5.31596 6.08221 5.30115C6.14145 5.24685 5.96866 5.3785 6.06904 5.31432C6.11183 5.28634 6.15626 5.2633 6.20399 5.24356L6.0855 5.29292C6.14803 5.26824 6.21221 5.25178 6.27804 5.24026C6.23361 5.24685 6.19082 5.25178 6.14639 5.25837C6.26652 5.24356 6.38994 5.25014 6.51172 5.25014H15.2599C15.6631 5.25014 16.0663 5.24849 16.4695 5.25014C16.5122 5.25014 16.5534 5.25343 16.5945 5.25837C16.5501 5.25178 16.5073 5.24685 16.4629 5.24026C16.5287 5.25014 16.5929 5.26824 16.6554 5.29292L16.5369 5.24356C16.583 5.2633 16.6291 5.28634 16.6719 5.31432C16.764 5.37356 16.6258 5.26989 16.6505 5.29457C16.6686 5.31267 16.6883 5.32748 16.7064 5.34558C16.7212 5.3604 16.736 5.37685 16.7509 5.39331C16.8052 5.45255 16.6735 5.27976 16.7377 5.38014C16.7657 5.42293 16.7887 5.46736 16.8085 5.51508L16.7591 5.3966C16.7838 5.45913 16.8002 5.52331 16.8117 5.58914C16.8052 5.54471 16.8002 5.50192 16.7936 5.45749C16.8216 5.67307 16.8019 5.90181 16.8019 6.11903V7.32528C16.8019 7.58365 17.029 7.83049 17.2956 7.81897C17.5638 7.80745 17.7893 7.60175 17.7893 7.32528V5.57762C17.7876 5.37027 17.7399 5.18431 17.6543 4.99671C17.4568 4.56391 17.0125 4.30554 16.5501 4.26769C16.5073 4.2644 16.4662 4.2644 16.4234 4.2644H6.5759C6.47222 4.2644 6.36855 4.26276 6.26323 4.2644C5.5408 4.27263 4.95824 4.85683 4.95166 5.57926C4.94837 5.88206 4.95166 6.18321 4.95166 6.48601V18.1667C4.95166 18.2523 4.95001 18.3379 4.95166 18.4234C4.95989 19.1459 5.54409 19.7284 6.26652 19.735C6.62856 19.7383 6.98895 19.735 7.35099 19.735H16.4316C16.5386 19.735 16.6422 19.7251 16.7476 19.7054C17.21 19.6215 17.577 19.2578 17.7267 18.8233C17.7893 18.639 17.7893 18.4465 17.7893 18.2539V16.6741C17.7893 16.4158 17.5622 16.1689 17.2956 16.1804C17.0273 16.1903 16.8019 16.396 16.8019 16.6725Z" fill="#03B517"/>
<path d="M15.3011 15.95L18.905 12.3461C19.0942 12.1569 19.0942 11.8376 18.905 11.6484L15.3011 8.04442C15.1184 7.86176 14.7827 7.84859 14.6033 8.04442C14.4223 8.2419 14.4075 8.54799 14.6033 8.74217L18.2072 12.3461V11.6484L14.6033 15.2523C14.4206 15.435 14.4075 15.7707 14.6033 15.95C14.8008 16.1311 15.1069 16.1459 15.3011 15.95Z" stroke="white" mask="url(#path-1-outside-1_1318_6924)"/>
<path d="M18.5561 11.5052H9.93628C9.53969 11.5052 9.14309 11.4986 8.74814 11.5052H8.73168C8.47332 11.5052 8.22647 11.7323 8.23799 11.9989C8.24951 12.2671 8.45521 12.4926 8.73168 12.4926H17.3515C17.7481 12.4926 18.1447 12.4992 18.5397 12.4926H18.5561C18.8145 12.4926 19.0613 12.2655 19.0498 11.9989C19.0383 11.7306 18.8326 11.5052 18.5561 11.5052Z" stroke="white" mask="url(#path-1-outside-1_1318_6924)"/>
<path d="M16.8019 16.6725V18.2474C16.8019 18.3444 16.8068 18.4432 16.7936 18.5386C16.8002 18.4942 16.8052 18.4514 16.8117 18.407C16.8019 18.4728 16.7838 18.537 16.7591 18.5995L16.8085 18.481C16.7887 18.5271 16.7657 18.5732 16.7377 18.616C16.6784 18.7081 16.7821 18.5699 16.7574 18.5946C16.7393 18.6127 16.7245 18.6324 16.7064 18.6505C16.6916 18.6653 16.6752 18.6802 16.6587 18.695C16.5995 18.7493 16.7723 18.6176 16.6719 18.6818C16.6291 18.7098 16.5846 18.7328 16.5369 18.7526L16.6554 18.7032C16.5929 18.7279 16.5287 18.7443 16.4629 18.7559C16.5073 18.7493 16.5501 18.7443 16.5945 18.7378C16.4744 18.7526 16.351 18.746 16.2292 18.746H7.481C7.07782 18.746 6.67464 18.7476 6.27146 18.746C6.22867 18.746 6.18753 18.7427 6.14639 18.7378C6.19082 18.7443 6.23361 18.7493 6.27804 18.7559C6.21221 18.746 6.14803 18.7279 6.0855 18.7032L6.20399 18.7526C6.15791 18.7328 6.11183 18.7098 6.06904 18.6818C5.97689 18.6226 6.11512 18.7262 6.09044 18.7015C6.07234 18.6834 6.05259 18.6686 6.03449 18.6505C6.01967 18.6357 6.00486 18.6193 5.99005 18.6028C5.93575 18.5436 6.0674 18.7164 6.00322 18.616C5.97524 18.5732 5.9522 18.5288 5.93246 18.481L5.98183 18.5995C5.95714 18.537 5.94068 18.4728 5.92917 18.407C5.93575 18.4514 5.94068 18.4942 5.94727 18.5386C5.92917 18.3955 5.93904 18.2474 5.93904 18.1025V5.58585C5.93904 5.54306 5.94233 5.50027 5.94727 5.45749C5.94068 5.50192 5.93575 5.54471 5.92917 5.58914C5.93904 5.52331 5.95714 5.45913 5.98183 5.3966L5.93246 5.51508C5.9522 5.46901 5.97524 5.42293 6.00322 5.38014C6.06246 5.28799 5.95879 5.42622 5.98347 5.40154C6.00157 5.38343 6.01638 5.36369 6.03449 5.34558C6.0493 5.33077 6.06575 5.31596 6.08221 5.30115C6.14145 5.24685 5.96866 5.3785 6.06904 5.31432C6.11183 5.28634 6.15626 5.2633 6.20399 5.24356L6.0855 5.29292C6.14803 5.26824 6.21221 5.25178 6.27804 5.24026C6.23361 5.24685 6.19082 5.25178 6.14639 5.25837C6.26652 5.24356 6.38994 5.25014 6.51172 5.25014H15.2599C15.6631 5.25014 16.0663 5.24849 16.4695 5.25014C16.5122 5.25014 16.5534 5.25343 16.5945 5.25837C16.5501 5.25178 16.5073 5.24685 16.4629 5.24026C16.5287 5.25014 16.5929 5.26824 16.6554 5.29292L16.5369 5.24356C16.583 5.2633 16.6291 5.28634 16.6719 5.31432C16.764 5.37356 16.6258 5.26989 16.6505 5.29457C16.6686 5.31267 16.6883 5.32748 16.7064 5.34558C16.7212 5.3604 16.736 5.37685 16.7509 5.39331C16.8052 5.45255 16.6735 5.27976 16.7377 5.38014C16.7657 5.42293 16.7887 5.46736 16.8085 5.51508L16.7591 5.3966C16.7838 5.45913 16.8002 5.52331 16.8117 5.58914C16.8052 5.54471 16.8002 5.50192 16.7936 5.45749C16.8216 5.67307 16.8019 5.90181 16.8019 6.11903V7.32528C16.8019 7.58365 17.029 7.83049 17.2956 7.81897C17.5638 7.80745 17.7893 7.60175 17.7893 7.32528V5.57762C17.7876 5.37027 17.7399 5.18431 17.6543 4.99671C17.4568 4.56391 17.0125 4.30554 16.5501 4.26769C16.5073 4.2644 16.4662 4.2644 16.4234 4.2644H6.5759C6.47222 4.2644 6.36855 4.26276 6.26323 4.2644C5.5408 4.27263 4.95824 4.85683 4.95166 5.57926C4.94837 5.88206 4.95166 6.18321 4.95166 6.48601V18.1667C4.95166 18.2523 4.95001 18.3379 4.95166 18.4234C4.95989 19.1459 5.54409 19.7284 6.26652 19.735C6.62856 19.7383 6.98895 19.735 7.35099 19.735H16.4316C16.5386 19.735 16.6422 19.7251 16.7476 19.7054C17.21 19.6215 17.577 19.2578 17.7267 18.8233C17.7893 18.639 17.7893 18.4465 17.7893 18.2539V16.6741C17.7893 16.4158 17.5622 16.1689 17.2956 16.1804C17.0273 16.1903 16.8019 16.396 16.8019 16.6725Z" stroke="white" mask="url(#path-1-outside-1_1318_6924)"/>
</svg>
