<svg width="22" height="28" viewBox="0 0 22 28" fill="none" xmlns="http://www.w3.org/2000/svg">
<path d="M17.2254 0.0341797H0V27.9653H21.88V4.68879L17.2254 0.0341797Z" fill="#E8E8E8"/>
<path d="M18.1643 13.8469C17.8287 13.2487 16.6691 13.0608 16.137 12.9762C15.7177 12.9095 15.2896 12.8896 14.8654 12.89C14.5324 12.8878 14.2043 12.9042 13.8803 12.9226C13.761 12.9306 13.6428 12.941 13.5247 12.9512C13.4036 12.8259 13.2866 12.6965 13.1734 12.5641C12.453 11.7113 11.8713 10.7441 11.3973 9.73916C11.5231 9.25357 11.6238 8.74679 11.6846 8.22048C11.7957 7.2599 11.8338 6.16518 11.4739 5.24936C11.3496 4.93328 11.0182 4.54848 10.6359 4.7401C10.1964 4.96046 10.0727 5.58479 10.0369 6.02736C10.0081 6.38508 10.0282 6.74372 10.0883 7.09545C10.1495 7.44958 10.248 7.78584 10.3552 8.12163C10.4552 8.42951 10.5655 8.735 10.6857 9.03763C10.6095 9.27586 10.5285 9.50995 10.4434 9.73805C10.2452 10.2579 10.0308 10.7518 9.82465 11.2269C9.71594 11.4624 9.60954 11.693 9.50543 11.9185C9.176 12.6421 8.81837 13.3525 8.41698 14.0392C7.48072 14.3694 6.64054 14.7523 5.94278 15.2022C5.56848 15.4441 5.23785 15.7067 4.96248 15.9948C4.70251 16.2668 4.43829 16.6197 4.41517 17.0104C4.40218 17.2309 4.48952 17.4449 4.67017 17.5758C4.91863 17.7614 5.24789 17.749 5.53615 17.6886C6.48042 17.4905 7.20554 16.6788 7.82305 15.9947C8.24839 15.5235 8.73251 14.9251 9.23892 14.2015C9.24002 14.1998 9.24113 14.1982 9.24232 14.1965C10.1109 13.9272 11.0562 13.6999 12.0594 13.5328C12.5177 13.4568 12.9882 13.3946 13.4681 13.3509C13.8055 13.667 14.1702 13.9548 14.568 14.1951C14.8778 14.3857 15.2073 14.5467 15.5522 14.6667C15.901 14.7807 16.2519 14.8737 16.6142 14.9326C16.7972 14.9588 16.9843 14.9706 17.1755 14.9635C17.6021 14.9473 18.2144 14.7837 18.2546 14.2661C18.267 14.1076 18.2328 13.9687 18.1643 13.8469ZM7.95055 14.7967C7.75073 15.1063 7.55801 15.3847 7.37643 15.6296C6.93174 16.2347 6.42386 16.9534 5.68852 17.2221C5.54886 17.2731 5.36498 17.3258 5.17115 17.3144C4.99851 17.3043 4.82826 17.2281 4.83609 17.032C4.83996 16.9294 4.89017 16.7985 4.96718 16.6699C5.05148 16.5288 5.15585 16.3995 5.26889 16.2806C5.51109 16.0261 5.81731 15.7795 6.16959 15.5511C6.70991 15.2006 7.35497 14.8851 8.074 14.6035C8.03263 14.6689 7.99136 14.734 7.95055 14.7967ZM10.4584 7.03428C10.4029 6.71056 10.3945 6.38232 10.4286 6.0667C10.4456 5.90889 10.4777 5.75485 10.5242 5.61049C10.5637 5.48797 10.6488 5.18893 10.7846 5.15051C11.0084 5.08713 11.0773 5.56775 11.1026 5.70372C11.2469 6.4772 11.1197 7.33737 10.9466 8.09611C10.9191 8.2168 10.8884 8.33554 10.857 8.45383C10.8034 8.30634 10.7522 8.15839 10.7052 8.0097C10.6038 7.68496 10.5112 7.35644 10.4584 7.03428ZM11.9953 13.1403C11.1542 13.2767 10.3541 13.4553 9.60198 13.6662C9.69254 13.6408 10.1064 12.8566 10.1987 12.6938C10.6336 11.9278 10.9894 11.1238 11.245 10.2804C11.6964 11.1732 12.2443 12.0273 12.9174 12.7875C12.9794 12.8565 13.0424 12.9246 13.1065 12.992C12.7293 13.0326 12.3582 13.0821 11.9953 13.1403ZM17.6834 14.2176C17.6527 14.3839 17.2975 14.479 17.1318 14.5051C16.6421 14.5822 16.124 14.5205 15.6552 14.3631C15.3336 14.2551 15.0234 14.1081 14.7287 13.9312C14.4358 13.7542 14.1617 13.546 13.9055 13.3165C14.2214 13.2975 14.5412 13.285 14.8625 13.2911C15.1838 13.2943 15.5076 13.3106 15.8275 13.3523C16.4273 13.4192 17.0995 13.6251 17.5716 14.0143C17.6646 14.091 17.6942 14.1588 17.6834 14.2176Z" fill="#FB3449"/>
<path d="M17.9457 2.36153H0V0.0341797H17.2254L17.9457 2.36153Z" fill="#FB3449"/>
<path d="M8.65964 22.2503C8.65964 22.7441 8.51408 23.1255 8.22278 23.3945C7.93148 23.6636 7.51784 23.7981 6.98168 23.7981H6.64607V25.2645H5.45194V20.8444H6.98177C7.54004 20.8444 7.9593 20.9664 8.23946 21.2103C8.51961 21.4541 8.65964 21.8008 8.65964 22.2503ZM6.64616 22.8247H6.86385C7.04322 22.8247 7.18582 22.7744 7.29168 22.6735C7.39753 22.5727 7.45041 22.4336 7.45041 22.2562C7.45041 21.9579 7.28513 21.8088 6.95459 21.8088H6.64616V22.8247Z" fill="#A4A9AD"/>
<path d="M13.1161 22.9607C13.1161 23.6984 12.9129 24.2668 12.5069 24.6659C12.1008 25.0649 11.5298 25.2645 10.7942 25.2645H9.36411V20.8444H10.8939C11.6034 20.8444 12.1511 21.0258 12.5371 21.3886C12.923 21.7514 13.1161 22.2755 13.1161 22.9607ZM11.8765 23.0031C11.8765 22.5979 11.7964 22.2977 11.6362 22.1021C11.476 21.9066 11.2326 21.8089 10.906 21.8089H10.5584V24.2849H10.8245C11.1874 24.2849 11.4533 24.1796 11.6226 23.9689C11.7919 23.7584 11.8765 23.4365 11.8765 23.0031Z" fill="#A4A9AD"/>
<path d="M15.0842 25.2645H13.9082V20.8444H16.5204V21.8028H15.0842V22.6463H16.4084V23.6047H15.0842V25.2645Z" fill="#A4A9AD"/>
<path d="M17.2254 4.68879H21.88L17.2254 0.0341797L17.2254 4.68879Z" fill="#D1D3D3"/>
</svg>
