<svg width="13" height="12" viewBox="0 0 13 12" fill="none" xmlns="http://www.w3.org/2000/svg">
<path d="M10.7414 6.46877C10.6428 6.45019 10.5447 6.4287 10.447 6.40529C10.2418 6.35494 10.0398 6.2925 9.84203 6.21828C9.36651 6.03853 8.83157 6.24151 8.59496 6.69143L8.21944 7.41262C7.66451 7.09759 7.15484 6.70879 6.70431 6.25686C6.25375 5.80465 5.86629 5.29369 5.55245 4.73781L6.26925 4.36477C6.71917 4.1281 6.9222 3.59328 6.74267 3.1177C6.66824 2.91961 6.6057 2.71728 6.55541 2.51174C6.53158 2.41424 6.51049 2.31594 6.49218 2.21682C6.35662 1.50771 5.73461 0.996146 5.01269 1.00002H3.47485C3.032 0.999991 2.61123 1.19332 2.32275 1.52932C2.03689 1.86043 1.90975 2.29983 1.9746 2.73244C2.64043 6.98354 5.97369 10.3191 10.2244 10.9878C10.2984 10.9991 10.3731 11.0048 10.448 11.0049C10.8078 11.0045 11.1555 10.8751 11.428 10.6402C11.7643 10.3516 11.9578 9.93047 11.9578 9.48733V7.94826C11.9619 7.2264 11.4505 6.60433 10.7414 6.46877ZM11.4578 9.48733C11.4576 9.78472 11.3276 10.0672 11.1018 10.2608C10.8809 10.4513 10.5881 10.5363 10.2996 10.4937C6.26507 9.859 3.10125 6.69314 2.46923 2.65822C2.42593 2.36953 2.51092 2.07629 2.7019 1.85549C2.89529 1.62981 3.17766 1.49996 3.47485 1.50002H5.01269C5.49352 1.49615 5.90874 1.83562 6.00051 2.30764C6.02029 2.41555 6.04372 2.52346 6.0696 2.63039C6.12481 2.85528 6.19329 3.07668 6.27468 3.29348C6.36553 3.53249 6.26406 3.80175 6.03811 3.92141L5.09621 4.41164C4.97384 4.47533 4.9262 4.62612 4.98977 4.74856C5.34563 5.43465 5.80447 6.06222 6.35033 6.6094C6.89593 7.15713 7.52236 7.61791 8.20776 7.97561C8.26684 8.00567 8.33526 8.01162 8.39864 7.99221C8.46181 7.9724 8.51449 7.9283 8.54516 7.86965L9.03832 6.92238C9.15801 6.69674 9.42693 6.59545 9.66576 6.68606C9.88232 6.76754 10.1036 6.83587 10.3284 6.89065C10.4343 6.91701 10.5413 6.93947 10.6497 6.95998C11.1219 7.05172 11.4616 7.46718 11.4578 7.94826V9.48733Z" fill="#2F3337"/>
</svg>
