<svg width="24" height="24" viewBox="0 0 24 24" fill="none" xmlns="http://www.w3.org/2000/svg">
<path d="M4.4249 9.73322L10.3994 4.39153C10.4738 4.32533 10.5657 4.28202 10.6641 4.26681C10.7624 4.2516 10.8631 4.26514 10.954 4.30579C11.0448 4.34645 11.122 4.4125 11.1763 4.49599C11.2305 4.57947 11.2594 4.67685 11.2596 4.7764V7.31809C15.9607 7.44725 19.75 12.076 19.75 17.7484C19.7494 18.2664 19.7175 18.784 19.6544 19.2982C19.6544 19.3111 19.6544 19.324 19.6544 19.3395C19.6512 19.3587 19.6469 19.3776 19.6415 19.3963L19.6286 19.4273C19.6211 19.4468 19.6125 19.4657 19.6028 19.4841L19.5821 19.5151C19.5719 19.5321 19.5607 19.5485 19.5485 19.5642L19.5201 19.5952L19.4814 19.6314L19.4452 19.6572L19.4013 19.6856L19.3625 19.7037L19.3083 19.7244H19.2876H19.2747C19.2359 19.7341 19.196 19.7393 19.1559 19.7399H19.0784C19.0433 19.7357 19.0086 19.7279 18.9751 19.7166C18.928 19.6999 18.8837 19.6764 18.8434 19.6469L18.8201 19.6314C18.7828 19.6016 18.7497 19.5669 18.722 19.5281L18.7168 19.5177C18.6884 19.4747 18.6667 19.4277 18.6522 19.3782C17.619 15.5192 14.6899 12.9207 11.381 12.9207H11.2673V15.4546C11.2672 15.5542 11.2382 15.6516 11.184 15.735C11.1298 15.8185 11.0526 15.8846 10.9617 15.9252C10.8709 15.9659 10.7702 15.9794 10.6718 15.9642C10.5734 15.949 10.4815 15.9057 10.4072 15.8395L4.4249 10.503C4.36993 10.4545 4.32591 10.3949 4.29575 10.3281C4.2656 10.2613 4.25 10.1888 4.25 10.1155C4.25 10.0422 4.2656 9.96976 4.29575 9.90296C4.32591 9.83616 4.36993 9.77654 4.4249 9.72806V9.73322ZM10.2264 14.3052V12.4377C10.2264 12.4377 10.2264 12.4196 10.2264 12.4092C10.2254 12.3912 10.2254 12.3731 10.2264 12.355C10.2264 12.3395 10.2264 12.324 10.2264 12.3085C10.2307 12.2919 10.2359 12.2755 10.2419 12.2594L10.26 12.2155L10.2832 12.1716L10.3116 12.1303L10.3426 12.0915L10.3762 12.0579L10.4149 12.027L10.4769 12.0089L10.5208 11.9856L10.5673 11.965L10.6138 11.9495H10.6655H10.6939C10.9341 11.9288 11.1537 11.9159 11.3707 11.9159C14.3747 11.9159 17.0869 13.7447 18.66 16.6583C18.2002 11.9727 14.974 8.34614 11.0581 8.34614H10.7636H10.743H10.6913H10.6526L10.5777 8.32547H10.5596C10.5327 8.31475 10.5068 8.30179 10.4821 8.28673C10.4583 8.27138 10.4359 8.2541 10.4149 8.23507C10.3963 8.21743 10.3791 8.19844 10.3633 8.17824L10.3478 8.15758C10.3354 8.13937 10.3242 8.12039 10.3142 8.10075L10.2961 8.06976C10.2882 8.05208 10.2813 8.03397 10.2755 8.01551C10.2755 8.0026 10.2755 7.9871 10.2625 7.97418C10.2616 7.95611 10.2616 7.93801 10.2625 7.91994C10.2625 7.90702 10.2625 7.89411 10.2625 7.87861V5.93101L5.54335 10.1181L10.2264 14.3052Z" fill="#083160"/>
</svg>
