<svg width="25" height="24" viewBox="0 0 25 24" fill="none" xmlns="http://www.w3.org/2000/svg">
<path d="M20.8514 10.0899C20.9155 9.65322 20.6135 9.24728 20.1768 9.18318L15.6635 8.52338L13.6467 4.41329C13.574 4.28792 13.4698 4.1838 13.3444 4.11132C12.9482 3.88237 12.4414 4.01788 12.2124 4.41407L10.1964 8.52338L5.68308 9.18323C5.51053 9.20852 5.35104 9.28964 5.22884 9.41408C4.91966 9.72901 4.92438 10.235 5.23932 10.5442L8.50789 13.7488L7.73657 18.2722C7.72926 18.3155 7.7255 18.3593 7.72541 18.4033C7.72419 18.8453 8.08148 19.2045 8.52349 19.2058C8.65378 19.2056 8.78208 19.1734 8.89706 19.1122L12.9299 16.9799L16.962 19.1114C17.1179 19.1941 17.2967 19.2229 17.4706 19.1933C17.9052 19.1191 18.1974 18.7068 18.1233 18.2722L17.352 13.7488L20.6214 10.5433C20.7454 10.4213 20.8261 10.2621 20.8514 10.0899Z" fill="#FDB200"/>
</svg>
