<svg width="30" height="30" viewBox="0 0 30 30" fill="none" xmlns="http://www.w3.org/2000/svg">
<path d="M23.9036 6.44643V6.34643H23.8036H15.8482H15.7482V6.44643V10.7857V10.8857H15.8482H23.8036H23.9036V10.7857V6.44643ZM6.44643 6.34643H6.34643V6.44643V10.7857V10.8857H6.44643H14.4018H14.5018V10.7857V6.44643V6.34643H14.4018H6.44643ZM6.34643 23.8036V23.9036H6.44643H14.4018H14.5018V23.8036V12.2321V12.1321H14.4018H6.44643H6.34643V12.2321V23.8036ZM23.8036 23.9036H23.9036V23.8036V12.2321V12.1321H23.8036H15.8482H15.7482V12.2321V23.8036V23.9036H15.8482H23.8036ZM5.72321 5.1H24.5268C24.8709 5.1 25.15 5.37905 25.15 5.72321V24.5268C25.15 24.8709 24.8709 25.15 24.5268 25.15H5.72321C5.37905 25.15 5.1 24.8709 5.1 24.5268V5.72321C5.1 5.37905 5.37905 5.1 5.72321 5.1Z" fill="#083160" stroke="white" stroke-width="0.2"/>
<path d="M12.2305 15.947H12.3305V15.847V14.4005V14.3005H12.2305H8.6144H8.5144V14.4005V15.847V15.947H8.6144H12.2305ZM12.2305 21.7327H12.3305V21.6327V20.1862V20.0862H12.2305H8.6144H8.5144V20.1862V21.6327V21.7327H8.6144H12.2305ZM18.0162 14.3005H17.9162V14.4005V15.847V15.947H18.0162H21.6323H21.7323V15.847V14.4005V14.3005H21.6323H18.0162ZM18.0162 20.0862H17.9162V20.1862V21.6327V21.7327H18.0162H21.6323H21.7323V21.6327V20.1862V20.0862H21.6323H18.0162ZM8.7144 8.61482C8.7144 8.27065 8.99345 7.9916 9.33761 7.9916H11.5073C11.8514 7.9916 12.1305 8.27065 12.1305 8.61482C12.1305 8.95898 11.8514 9.23803 11.5073 9.23803H9.33761C8.99345 9.23803 8.7144 8.95898 8.7144 8.61482ZM7.89118 13.0541H12.9537C13.2978 13.0541 13.5769 13.3332 13.5769 13.6773V16.5702C13.5769 16.9143 13.2978 17.1934 12.9537 17.1934H7.89118C7.54702 17.1934 7.26797 16.9143 7.26797 16.5702V13.6773C7.26797 13.3332 7.54702 13.0541 7.89118 13.0541ZM7.89118 18.8398H12.9537C13.2978 18.8398 13.5769 19.1189 13.5769 19.463V22.3559C13.5769 22.7 13.2978 22.9791 12.9537 22.9791H7.89118C7.54702 22.9791 7.26797 22.7 7.26797 22.3559V19.463C7.26797 19.1189 7.54702 18.8398 7.89118 18.8398ZM22.3555 17.1934H17.293C16.9488 17.1934 16.6698 16.9143 16.6698 16.5702V13.6773C16.6698 13.3332 16.9488 13.0541 17.293 13.0541H22.3555C22.6996 13.0541 22.9787 13.3332 22.9787 13.6773V16.5702C22.9787 16.9143 22.6996 17.1934 22.3555 17.1934ZM22.3555 22.9791H17.293C16.9488 22.9791 16.6698 22.7 16.6698 22.3559V19.463C16.6698 19.1189 16.9488 18.8398 17.293 18.8398H22.3555C22.6996 18.8398 22.9787 19.1189 22.9787 19.463V22.3559C22.9787 22.7 22.6996 22.9791 22.3555 22.9791ZM18.8304 7.9916H21C21.3442 7.9916 21.6232 8.27065 21.6232 8.61482C21.6232 8.95898 21.3442 9.23803 21 9.23803H18.8304C18.4862 9.23803 18.2071 8.95898 18.2071 8.61482C18.2071 8.27065 18.4862 7.9916 18.8304 7.9916Z" fill="#083160" stroke="white" stroke-width="0.2"/>
</svg>
