<svg width="15" height="14" viewBox="0 0 15 14" fill="none" xmlns="http://www.w3.org/2000/svg">
<path d="M5.41601 9.67483L3.20343 7.46225C3.09341 7.35599 2.94606 7.2972 2.79311 7.29852C2.64016 7.29985 2.49385 7.3612 2.3857 7.46936C2.27754 7.57751 2.21619 7.72382 2.21487 7.87677C2.21354 8.02972 2.27233 8.17707 2.37859 8.28708L5.00359 10.9121C5.11298 11.0214 5.26133 11.0829 5.41601 11.0829C5.57069 11.0829 5.71903 11.0214 5.82843 10.9121L12.2451 4.49542C12.3514 4.3854 12.4101 4.23805 12.4088 4.0851C12.4075 3.93215 12.3461 3.78585 12.238 3.67769C12.1298 3.56954 11.9835 3.50819 11.8306 3.50686C11.6776 3.50553 11.5303 3.56433 11.4203 3.67058L5.41601 9.67483Z" fill="white"/>
</svg>
