<svg width="24" height="24" viewBox="0 0 24 24" fill="none" xmlns="http://www.w3.org/2000/svg">
<g clip-path="url(#clip0_1217_14932)">
<path d="M16.0981 12.6338L14 11.4229V7C14 6.73478 13.8946 6.48043 13.7071 6.29289C13.5196 6.10536 13.2652 6 13 6C12.7348 6 12.4804 6.10536 12.2929 6.29289C12.1054 6.48043 12 6.73478 12 7V12C12 12.1756 12.0461 12.3481 12.1339 12.5001C12.2217 12.6522 12.3479 12.7784 12.5 12.8662L15.0981 14.3662C15.2119 14.432 15.3375 14.4746 15.4678 14.4918C15.598 14.509 15.7304 14.5004 15.8573 14.4664C15.9842 14.4324 16.1032 14.3737 16.2074 14.2938C16.3117 14.2138 16.3991 14.114 16.4648 14.0003C16.5305 13.8865 16.5731 13.7609 16.5902 13.6306C16.6073 13.5003 16.5986 13.368 16.5646 13.2411C16.5305 13.1142 16.4718 12.9952 16.3918 12.891C16.3117 12.7868 16.212 12.6994 16.0981 12.6338ZM13 2C11.0222 2 9.08879 2.58649 7.4443 3.6853C5.79981 4.78412 4.51809 6.3459 3.76121 8.17317C3.00433 10.0004 2.8063 12.0111 3.19215 13.9509C3.578 15.8907 4.53041 17.6725 5.92894 19.0711C7.32746 20.4696 9.10929 21.422 11.0491 21.8079C12.9889 22.1937 14.9996 21.9957 16.8268 21.2388C18.6541 20.4819 20.2159 19.2002 21.3147 17.5557C22.4135 15.9112 23 13.9778 23 12C22.9971 9.34874 21.9425 6.80691 20.0678 4.93219C18.1931 3.05746 15.6513 2.00295 13 2ZM13 20C11.4178 20 9.87104 19.5308 8.55544 18.6518C7.23985 17.7727 6.21447 16.5233 5.60897 15.0615C5.00347 13.5997 4.84504 11.9911 5.15372 10.4393C5.4624 8.88743 6.22433 7.46197 7.34315 6.34315C8.46197 5.22433 9.88743 4.4624 11.4393 4.15372C12.9911 3.84504 14.5997 4.00346 16.0615 4.60896C17.5233 5.21447 18.7727 6.23985 19.6518 7.55544C20.5308 8.87103 21 10.4178 21 12C20.9976 14.121 20.1539 16.1544 18.6542 17.6542C17.1544 19.1539 15.121 19.9976 13 20Z" fill="#00A0A3"/>
</g>
<defs>
<clipPath id="clip0_1217_14932">
<rect width="24" height="24" fill="white"/>
</clipPath>
</defs>
</svg>
