<svg width="51" height="50" viewBox="0 0 51 50" fill="none" xmlns="http://www.w3.org/2000/svg">
<path fill-rule="evenodd" clip-rule="evenodd" d="M25.4578 45.8337C36.9641 45.8337 46.2912 36.5066 46.2912 25.0003C46.2912 13.4941 36.9641 4.16699 25.4578 4.16699C13.9516 4.16699 4.62451 13.4941 4.62451 25.0003C4.62451 36.5066 13.9516 45.8337 25.4578 45.8337ZM31.7078 20.8337C31.7078 22.4913 31.0494 24.081 29.8773 25.2531C28.7052 26.4252 27.1154 27.0837 25.4578 27.0837C23.8002 27.0837 22.2105 26.4252 21.0384 25.2531C19.8663 24.081 19.2078 22.4913 19.2078 20.8337C19.2078 19.1761 19.8663 17.5863 21.0384 16.4142C22.2105 15.2421 23.8002 14.5837 25.4578 14.5837C27.1154 14.5837 28.7052 15.2421 29.8773 16.4142C31.0494 17.5863 31.7078 19.1761 31.7078 20.8337ZM12.9578 35.417C14.412 33.4751 16.299 31.8991 18.4689 30.8141C20.6388 29.7292 23.0318 29.1652 25.4578 29.167C27.8839 29.1652 30.2769 29.7292 32.4468 30.8141C34.6167 31.8991 36.5037 33.4751 37.9578 35.417C36.5037 37.3589 34.6167 38.9349 32.4468 40.0198C30.2769 41.1048 27.8839 41.6688 25.4578 41.667C23.0318 41.6688 20.6388 41.1048 18.4689 40.0198C16.299 38.9349 14.412 37.3589 12.9578 35.417Z" fill="#B1BFC8"/>
</svg>
